<mxfile host="app.diagrams.net" modified="2023-12-12T12:00:49.854Z" agent="Mozilla/5.0 (Windows NT 10.0; Win64; x64) AppleWebKit/537.36 (KHTML, like Gecko) Chrome/120.0.0.0 Safari/537.36 Edg/120.0.0.0" etag="yO9a0U44QjqqucpgWnUU" version="22.1.7" type="github">
  <diagram name="Page-1" id="hb8tEkCLFIQBaX6wpVKN">
    <mxGraphModel dx="1303" dy="1897" grid="1" gridSize="10" guides="1" tooltips="1" connect="1" arrows="1" fold="1" page="1" pageScale="1" pageWidth="827" pageHeight="1169" math="0" shadow="0">
      <root>
        <mxCell id="0" />
        <mxCell id="1" parent="0" />
        <mxCell id="D2o_ERgQlQKrbm8D8T-C-85" value="" style="endArrow=classic;html=1;rounded=0;" parent="1" edge="1">
          <mxGeometry width="50" height="50" relative="1" as="geometry">
            <mxPoint x="220" y="-160" as="sourcePoint" />
            <mxPoint x="270" y="-210" as="targetPoint" />
          </mxGeometry>
        </mxCell>
        <mxCell id="D2o_ERgQlQKrbm8D8T-C-90" value="" style="childLayout=tableLayout;recursiveResize=0;shadow=0;fillColor=#fff2cc;points=[[0,0,0,0,0],[0,0.25,0,0,0],[0,0.5,0,0,0],[0,0.75,0,0,0],[0,1,0,0,0],[0.25,0,0,0,0],[0.25,1,0,0,0],[0.5,0,0,0,0],[0.5,1,0,0,0],[0.75,0,0,0,0],[0.75,1,0,0,0],[1,0,0,0,0],[1,0.25,0,0,0],[1,0.5,0,0,0],[1,0.75,0,0,0],[1,1,0,0,0]];strokeColor=#d6b656;fontSize=18;" parent="1" vertex="1">
          <mxGeometry x="580" y="-240" width="662" height="552" as="geometry" />
        </mxCell>
        <mxCell id="D2o_ERgQlQKrbm8D8T-C-91" value="" style="shape=tableRow;horizontal=0;startSize=0;swimlaneHead=0;swimlaneBody=0;top=0;left=0;bottom=0;right=0;dropTarget=0;collapsible=0;recursiveResize=0;expand=0;fontStyle=0;fillColor=none;strokeColor=inherit;fontSize=18;" parent="D2o_ERgQlQKrbm8D8T-C-90" vertex="1">
          <mxGeometry width="662" height="100" as="geometry" />
        </mxCell>
        <mxCell id="D2o_ERgQlQKrbm8D8T-C-92" value="" style="connectable=0;recursiveResize=0;strokeColor=inherit;fillColor=none;align=center;whiteSpace=wrap;html=1;fontSize=18;" parent="D2o_ERgQlQKrbm8D8T-C-91" vertex="1">
          <mxGeometry width="220" height="100" as="geometry">
            <mxRectangle width="220" height="100" as="alternateBounds" />
          </mxGeometry>
        </mxCell>
        <mxCell id="D2o_ERgQlQKrbm8D8T-C-93" value="&lt;p class=&quot;MsoNormal&quot;&gt;&lt;font face=&quot;Helvetica&quot;&gt;Camera&lt;/font&gt;&lt;/p&gt;" style="connectable=0;recursiveResize=0;strokeColor=inherit;fillColor=none;align=center;whiteSpace=wrap;html=1;fontSize=18;" parent="D2o_ERgQlQKrbm8D8T-C-91" vertex="1">
          <mxGeometry x="220" width="222" height="100" as="geometry">
            <mxRectangle width="222" height="100" as="alternateBounds" />
          </mxGeometry>
        </mxCell>
        <mxCell id="D2o_ERgQlQKrbm8D8T-C-94" value="Lidar" style="connectable=0;recursiveResize=0;strokeColor=inherit;fillColor=none;align=center;whiteSpace=wrap;html=1;fontSize=18;" parent="D2o_ERgQlQKrbm8D8T-C-91" vertex="1">
          <mxGeometry x="442" width="220" height="100" as="geometry">
            <mxRectangle width="220" height="100" as="alternateBounds" />
          </mxGeometry>
        </mxCell>
        <mxCell id="D2o_ERgQlQKrbm8D8T-C-112" value="" style="shape=tableRow;horizontal=0;startSize=0;swimlaneHead=0;swimlaneBody=0;top=0;left=0;bottom=0;right=0;dropTarget=0;collapsible=0;recursiveResize=0;expand=0;fontStyle=0;fillColor=none;strokeColor=inherit;fontSize=18;" parent="D2o_ERgQlQKrbm8D8T-C-90" vertex="1">
          <mxGeometry y="100" width="662" height="150" as="geometry" />
        </mxCell>
        <mxCell id="D2o_ERgQlQKrbm8D8T-C-113" value="Data Modality" style="connectable=0;recursiveResize=0;strokeColor=inherit;fillColor=none;align=center;whiteSpace=wrap;html=1;fontSize=18;" parent="D2o_ERgQlQKrbm8D8T-C-112" vertex="1">
          <mxGeometry width="220" height="150" as="geometry">
            <mxRectangle width="220" height="150" as="alternateBounds" />
          </mxGeometry>
        </mxCell>
        <mxCell id="D2o_ERgQlQKrbm8D8T-C-114" value="RGB、YUV" style="connectable=0;recursiveResize=0;strokeColor=inherit;fillColor=none;align=center;whiteSpace=wrap;html=1;fontSize=18;" parent="D2o_ERgQlQKrbm8D8T-C-112" vertex="1">
          <mxGeometry x="220" width="222" height="150" as="geometry">
            <mxRectangle width="222" height="150" as="alternateBounds" />
          </mxGeometry>
        </mxCell>
        <mxCell id="D2o_ERgQlQKrbm8D8T-C-115" value="Intensity，Distance，Angle ，Point Cloud " style="connectable=0;recursiveResize=0;strokeColor=inherit;fillColor=none;align=center;whiteSpace=wrap;html=1;fontSize=18;" parent="D2o_ERgQlQKrbm8D8T-C-112" vertex="1">
          <mxGeometry x="442" width="220" height="150" as="geometry">
            <mxRectangle width="220" height="150" as="alternateBounds" />
          </mxGeometry>
        </mxCell>
        <mxCell id="D2o_ERgQlQKrbm8D8T-C-95" style="shape=tableRow;horizontal=0;startSize=0;swimlaneHead=0;swimlaneBody=0;top=0;left=0;bottom=0;right=0;dropTarget=0;collapsible=0;recursiveResize=0;expand=0;fontStyle=0;fillColor=none;strokeColor=inherit;fontSize=18;" parent="D2o_ERgQlQKrbm8D8T-C-90" vertex="1">
          <mxGeometry y="250" width="662" height="140" as="geometry" />
        </mxCell>
        <mxCell id="D2o_ERgQlQKrbm8D8T-C-96" value="Uncertainty" style="connectable=0;recursiveResize=0;strokeColor=inherit;fillColor=none;align=center;whiteSpace=wrap;html=1;fontSize=18;" parent="D2o_ERgQlQKrbm8D8T-C-95" vertex="1">
          <mxGeometry width="220" height="140" as="geometry">
            <mxRectangle width="220" height="140" as="alternateBounds" />
          </mxGeometry>
        </mxCell>
        <mxCell id="D2o_ERgQlQKrbm8D8T-C-97" value="&lt;p class=&quot;MsoNormal&quot;&gt;来源于自身畸变、电子噪声和曝光等因素&lt;br&gt;&lt;/p&gt;&lt;p class=&quot;MsoNormal&quot;&gt;解决方法：matlab&lt;/p&gt;" style="connectable=0;recursiveResize=0;strokeColor=inherit;fillColor=none;align=center;whiteSpace=wrap;html=1;fontSize=18;" parent="D2o_ERgQlQKrbm8D8T-C-95" vertex="1">
          <mxGeometry x="220" width="222" height="140" as="geometry">
            <mxRectangle width="222" height="140" as="alternateBounds" />
          </mxGeometry>
        </mxCell>
        <mxCell id="D2o_ERgQlQKrbm8D8T-C-98" value="&lt;p style=&quot;border-color: var(--border-color);&quot; class=&quot;MsoNormal&quot;&gt;波长短，易受空气杂质干扰&lt;/p&gt;&lt;p style=&quot;border-color: var(--border-color);&quot; class=&quot;MsoNormal&quot;&gt;&lt;span style=&quot;border-color: var(--border-color); background-color: initial;&quot;&gt;解决方法：&lt;/span&gt;&lt;span style=&quot;border-color: var(--border-color); background-color: initial; text-indent: -21pt;&quot;&gt;小波变换(&lt;/span&gt;&lt;span style=&quot;border-color: var(--border-color); background-color: initial; text-indent: -21pt;&quot;&gt;WT)&lt;/span&gt;&lt;span style=&quot;border-color: var(--border-color); background-color: initial; text-indent: -21pt;&quot;&gt;.&amp;nbsp;&lt;/span&gt;&lt;span style=&quot;border-color: var(--border-color); background-color: initial; text-indent: -21pt;&quot;&gt;经验模态分解法(EMD&lt;/span&gt;&lt;span style=&quot;border-color: var(--border-color); background-color: initial; text-indent: -21pt;&quot;&gt;)&lt;/span&gt;&lt;span style=&quot;border-color: var(--border-color); background-color: initial;&quot;&gt;变分模态分解法(VMD&lt;/span&gt;&lt;span style=&quot;border-color: var(--border-color); background-color: initial;&quot;&gt;)&lt;/span&gt;&lt;/p&gt;" style="connectable=0;recursiveResize=0;strokeColor=inherit;fillColor=none;align=center;whiteSpace=wrap;html=1;fontSize=18;" parent="D2o_ERgQlQKrbm8D8T-C-95" vertex="1">
          <mxGeometry x="442" width="220" height="140" as="geometry">
            <mxRectangle width="220" height="140" as="alternateBounds" />
          </mxGeometry>
        </mxCell>
        <mxCell id="D2o_ERgQlQKrbm8D8T-C-108" style="shape=tableRow;horizontal=0;startSize=0;swimlaneHead=0;swimlaneBody=0;top=0;left=0;bottom=0;right=0;dropTarget=0;collapsible=0;recursiveResize=0;expand=0;fontStyle=0;fillColor=none;strokeColor=inherit;fontSize=18;" parent="D2o_ERgQlQKrbm8D8T-C-90" vertex="1">
          <mxGeometry y="390" width="662" height="162" as="geometry" />
        </mxCell>
        <mxCell id="D2o_ERgQlQKrbm8D8T-C-109" value="non-stationary" style="connectable=0;recursiveResize=0;strokeColor=inherit;fillColor=none;align=center;whiteSpace=wrap;html=1;fontSize=18;" parent="D2o_ERgQlQKrbm8D8T-C-108" vertex="1">
          <mxGeometry width="220" height="162" as="geometry">
            <mxRectangle width="220" height="162" as="alternateBounds" />
          </mxGeometry>
        </mxCell>
        <mxCell id="D2o_ERgQlQKrbm8D8T-C-110" value="" style="connectable=0;recursiveResize=0;strokeColor=inherit;fillColor=none;align=center;whiteSpace=wrap;html=1;fontSize=18;" parent="D2o_ERgQlQKrbm8D8T-C-108" vertex="1">
          <mxGeometry x="220" width="222" height="162" as="geometry">
            <mxRectangle width="222" height="162" as="alternateBounds" />
          </mxGeometry>
        </mxCell>
        <mxCell id="D2o_ERgQlQKrbm8D8T-C-111" value="" style="connectable=0;recursiveResize=0;strokeColor=inherit;fillColor=none;align=center;whiteSpace=wrap;html=1;fontSize=18;" parent="D2o_ERgQlQKrbm8D8T-C-108" vertex="1">
          <mxGeometry x="442" width="220" height="162" as="geometry">
            <mxRectangle width="220" height="162" as="alternateBounds" />
          </mxGeometry>
        </mxCell>
        <UserObject label="" link="http://jemi.cnjournals.com/jemi/article/abstract/20230916" id="D2o_ERgQlQKrbm8D8T-C-184">
          <mxCell style="childLayout=tableLayout;recursiveResize=0;shadow=0;fillColor=#fff2cc;points=[[0,0,0,0,0],[0,0.25,0,0,0],[0,0.5,0,0,0],[0,0.75,0,0,0],[0,1,0,0,0],[0.25,0,0,0,0],[0.25,1,0,0,0],[0.5,0,0,0,0],[0.5,1,0,0,0],[0.75,0,0,0,0],[0.75,1,0,0,0],[1,0,0,0,0],[1,0.25,0,0,0],[1,0.5,0,0,0],[1,0.75,0,0,0],[1,1,0,0,0]];strokeColor=#d6b656;fontSize=18;" parent="1" vertex="1">
            <mxGeometry x="1240" y="-240" width="590" height="553" as="geometry" />
          </mxCell>
        </UserObject>
        <mxCell id="D2o_ERgQlQKrbm8D8T-C-185" value="" style="shape=tableRow;horizontal=0;startSize=0;swimlaneHead=0;swimlaneBody=0;top=0;left=0;bottom=0;right=0;dropTarget=0;collapsible=0;recursiveResize=0;expand=0;fontStyle=0;fillColor=none;strokeColor=inherit;fontSize=18;" parent="D2o_ERgQlQKrbm8D8T-C-184" vertex="1">
          <mxGeometry width="590" height="100" as="geometry" />
        </mxCell>
        <mxCell id="D2o_ERgQlQKrbm8D8T-C-186" value="Radar" style="connectable=0;recursiveResize=0;strokeColor=inherit;fillColor=none;align=center;whiteSpace=wrap;html=1;fontSize=18;" parent="D2o_ERgQlQKrbm8D8T-C-185" vertex="1">
          <mxGeometry width="223" height="100" as="geometry">
            <mxRectangle width="223" height="100" as="alternateBounds" />
          </mxGeometry>
        </mxCell>
        <mxCell id="D2o_ERgQlQKrbm8D8T-C-187" value="GPS&lt;span style=&quot;white-space: pre;&quot;&gt;&#x9;&lt;/span&gt;&lt;span style=&quot;white-space: pre;&quot;&gt;&#x9;&lt;/span&gt;&lt;span style=&quot;white-space: pre;&quot;&gt;&#x9;&lt;/span&gt;&lt;span style=&quot;white-space: pre;&quot;&gt;&#x9;&lt;/span&gt;&lt;span style=&quot;white-space: pre;&quot;&gt;&#x9;&lt;/span&gt;&lt;span style=&quot;white-space: pre;&quot;&gt;&#x9;&lt;/span&gt;" style="connectable=0;recursiveResize=0;strokeColor=inherit;fillColor=none;align=center;whiteSpace=wrap;html=1;fontSize=18;" parent="D2o_ERgQlQKrbm8D8T-C-185" vertex="1">
          <mxGeometry x="223" width="187" height="100" as="geometry">
            <mxRectangle width="187" height="100" as="alternateBounds" />
          </mxGeometry>
        </mxCell>
        <mxCell id="D2o_ERgQlQKrbm8D8T-C-188" value="IMU" style="connectable=0;recursiveResize=0;strokeColor=inherit;fillColor=none;align=center;whiteSpace=wrap;html=1;fontSize=18;" parent="D2o_ERgQlQKrbm8D8T-C-185" vertex="1">
          <mxGeometry x="410" width="180" height="100" as="geometry">
            <mxRectangle width="180" height="100" as="alternateBounds" />
          </mxGeometry>
        </mxCell>
        <mxCell id="D2o_ERgQlQKrbm8D8T-C-189" value="" style="shape=tableRow;horizontal=0;startSize=0;swimlaneHead=0;swimlaneBody=0;top=0;left=0;bottom=0;right=0;dropTarget=0;collapsible=0;recursiveResize=0;expand=0;fontStyle=0;fillColor=none;strokeColor=inherit;fontSize=18;" parent="D2o_ERgQlQKrbm8D8T-C-184" vertex="1">
          <mxGeometry y="100" width="590" height="150" as="geometry" />
        </mxCell>
        <mxCell id="D2o_ERgQlQKrbm8D8T-C-190" value="&lt;div style=&quot;&quot;&gt;&lt;span style=&quot;background-color: initial;&quot;&gt;Distance&lt;/span&gt;&lt;/div&gt;Direction&lt;br&gt;Intensity" style="connectable=0;recursiveResize=0;strokeColor=inherit;fillColor=none;align=center;whiteSpace=wrap;html=1;fontSize=18;textDirection=ltr;" parent="D2o_ERgQlQKrbm8D8T-C-189" vertex="1">
          <mxGeometry width="223" height="150" as="geometry">
            <mxRectangle width="223" height="150" as="alternateBounds" />
          </mxGeometry>
        </mxCell>
        <mxCell id="D2o_ERgQlQKrbm8D8T-C-191" value="&lt;p style=&quot;margin-left: 42pt; text-indent: -21pt;&quot; class=&quot;15&quot;&gt;&lt;font face=&quot;Helvetica&quot; style=&quot;font-size: 18px;&quot;&gt;&lt;font style=&quot;font-size: 18px;&quot;&gt;经度&lt;/font&gt; &lt;font style=&quot;font-size: 18px;&quot;&gt;Longtitude&lt;/font&gt;&lt;/font&gt;&lt;/p&gt;&lt;p style=&quot;margin-left: 42pt; text-indent: -21pt;&quot; class=&quot;15&quot;&gt;&lt;font face=&quot;ocGpZ4sla6XCSU01zDwM&quot;&gt;&lt;font style=&quot;text-indent: -21pt; background-color: initial;&quot;&gt;维度&lt;/font&gt;&lt;span style=&quot;text-indent: -21pt; background-color: initial;&quot;&gt; &lt;/span&gt;&lt;font style=&quot;text-indent: -21pt; background-color: initial;&quot;&gt;Latitude&lt;/font&gt;&lt;/font&gt;&lt;/p&gt;&lt;p style=&quot;margin-left: 42pt; text-indent: -21pt;&quot; class=&quot;15&quot;&gt;&lt;font face=&quot;ocGpZ4sla6XCSU01zDwM&quot;&gt;&lt;font style=&quot;text-indent: -21pt; background-color: initial;&quot;&gt;磁偏角&amp;nbsp;&lt;/font&gt;&lt;font style=&quot;text-indent: -21pt; background-color: initial;&quot;&gt;Declination&lt;/font&gt;&lt;/font&gt;&lt;/p&gt;&lt;p style=&quot;margin-left: 42pt; text-indent: -21pt;&quot; class=&quot;15&quot;&gt;&lt;span style=&quot;font-size: 19px;&quot;&gt;&lt;/span&gt;&lt;/p&gt;" style="connectable=0;recursiveResize=0;strokeColor=inherit;fillColor=none;align=left;whiteSpace=wrap;html=1;fontSize=18;fontFamily=Helvetica;" parent="D2o_ERgQlQKrbm8D8T-C-189" vertex="1">
          <mxGeometry x="223" width="187" height="150" as="geometry">
            <mxRectangle width="187" height="150" as="alternateBounds" />
          </mxGeometry>
        </mxCell>
        <mxCell id="D2o_ERgQlQKrbm8D8T-C-192" value="加速度&lt;br&gt;角速度&lt;br&gt;欧拉角" style="connectable=0;recursiveResize=0;strokeColor=inherit;fillColor=none;align=center;whiteSpace=wrap;html=1;fontSize=18;" parent="D2o_ERgQlQKrbm8D8T-C-189" vertex="1">
          <mxGeometry x="410" width="180" height="150" as="geometry">
            <mxRectangle width="180" height="150" as="alternateBounds" />
          </mxGeometry>
        </mxCell>
        <mxCell id="D2o_ERgQlQKrbm8D8T-C-193" style="shape=tableRow;horizontal=0;startSize=0;swimlaneHead=0;swimlaneBody=0;top=0;left=0;bottom=0;right=0;dropTarget=0;collapsible=0;recursiveResize=0;expand=0;fontStyle=0;fillColor=none;strokeColor=inherit;fontSize=18;verticalAlign=middle;" parent="D2o_ERgQlQKrbm8D8T-C-184" vertex="1">
          <mxGeometry y="250" width="590" height="140" as="geometry" />
        </mxCell>
        <mxCell id="D2o_ERgQlQKrbm8D8T-C-194" value="&lt;p class=&quot;MsoNormal&quot;&gt;同频干扰、异频干扰&lt;/p&gt;&lt;p class=&quot;MsoNormal&quot;&gt;&lt;a href=&quot;http://jemi.etmchina.com/jemi/article/pdf/20230916&quot;&gt;参考论文&lt;/a&gt;&lt;/p&gt;" style="connectable=0;recursiveResize=0;strokeColor=inherit;fillColor=none;align=center;whiteSpace=wrap;html=1;fontSize=18;" parent="D2o_ERgQlQKrbm8D8T-C-193" vertex="1">
          <mxGeometry width="223" height="140" as="geometry">
            <mxRectangle width="223" height="140" as="alternateBounds" />
          </mxGeometry>
        </mxCell>
        <mxCell id="D2o_ERgQlQKrbm8D8T-C-195" value="大多数来自自身" style="connectable=0;recursiveResize=0;strokeColor=inherit;fillColor=none;align=center;whiteSpace=wrap;html=1;fontSize=18;" parent="D2o_ERgQlQKrbm8D8T-C-193" vertex="1">
          <mxGeometry x="223" width="187" height="140" as="geometry">
            <mxRectangle width="187" height="140" as="alternateBounds" />
          </mxGeometry>
        </mxCell>
        <mxCell id="D2o_ERgQlQKrbm8D8T-C-196" value="漂移，噪声&lt;br&gt;解决方法：滤波器、卡尔曼、机器学习" style="connectable=0;recursiveResize=0;strokeColor=inherit;fillColor=none;align=center;whiteSpace=wrap;html=1;fontSize=18;" parent="D2o_ERgQlQKrbm8D8T-C-193" vertex="1">
          <mxGeometry x="410" width="180" height="140" as="geometry">
            <mxRectangle width="180" height="140" as="alternateBounds" />
          </mxGeometry>
        </mxCell>
        <mxCell id="D2o_ERgQlQKrbm8D8T-C-205" style="shape=tableRow;horizontal=0;startSize=0;swimlaneHead=0;swimlaneBody=0;top=0;left=0;bottom=0;right=0;dropTarget=0;collapsible=0;recursiveResize=0;expand=0;fontStyle=0;fillColor=none;strokeColor=inherit;fontSize=18;" parent="D2o_ERgQlQKrbm8D8T-C-184" vertex="1">
          <mxGeometry y="390" width="590" height="163" as="geometry" />
        </mxCell>
        <mxCell id="D2o_ERgQlQKrbm8D8T-C-206" value="" style="connectable=0;recursiveResize=0;strokeColor=inherit;fillColor=none;align=center;whiteSpace=wrap;html=1;fontSize=18;" parent="D2o_ERgQlQKrbm8D8T-C-205" vertex="1">
          <mxGeometry width="223" height="163" as="geometry">
            <mxRectangle width="223" height="163" as="alternateBounds" />
          </mxGeometry>
        </mxCell>
        <mxCell id="D2o_ERgQlQKrbm8D8T-C-207" value="" style="connectable=0;recursiveResize=0;strokeColor=inherit;fillColor=none;align=center;whiteSpace=wrap;html=1;fontSize=18;" parent="D2o_ERgQlQKrbm8D8T-C-205" vertex="1">
          <mxGeometry x="223" width="187" height="163" as="geometry">
            <mxRectangle width="187" height="163" as="alternateBounds" />
          </mxGeometry>
        </mxCell>
        <mxCell id="D2o_ERgQlQKrbm8D8T-C-208" value="" style="connectable=0;recursiveResize=0;strokeColor=inherit;fillColor=none;align=center;whiteSpace=wrap;html=1;fontSize=18;" parent="D2o_ERgQlQKrbm8D8T-C-205" vertex="1">
          <mxGeometry x="410" width="180" height="163" as="geometry">
            <mxRectangle width="180" height="163" as="alternateBounds" />
          </mxGeometry>
        </mxCell>
      </root>
    </mxGraphModel>
  </diagram>
</mxfile>
